<?xml version="1.0" standalone="yes"?><svg xmlns:dc="http://purl.org/dc/elements/1.1/" xmlns:cc="http://creativecommons.org/ns#" xmlns:rdf="http://www.w3.org/1999/02/22-rdf-syntax-ns#" xmlns:svg="http://www.w3.org/2000/svg" xmlns="http://www.w3.org/2000/svg" xmlns:sodipodi="http://sodipodi.sourceforge.net/DTD/sodipodi-0.dtd" xmlns:inkscape="http://www.inkscape.org/namespaces/inkscape" viewBox="0 0 48 48" version="1.1" x="0px" y="0px" style="zoom: 1;"><g transform="translate(0,-1004.3622)"><g transform="translate(-8.0009203,-4.1324463)"><path d="M24,0 C10.751088,0 -2.3684758e-015,10.7511 0,24 C0,37.249 10.751088,48 24,48 C37.248912,48 48,37.249 48,24 C48,10.7511 37.248912,0 24,0  z M24,1 C36.708472,1 47,11.2916 47,24 C47,36.7085 36.708472,47 24,47 C11.291529,47 1,36.7085 1,24 C1,11.2916 11.291529,1 24,1  z M37.128906,9.125 L29.652344,22.029297 L29.208984,21.773438 C28.489303,21.357937 27.627403,21.636366 27.158203,22.322266 L26.613281,23.119141 A7.5,7.5 0 0 0 18.828125,26.75 A7.5,7.5 0 0 0 21.574219,36.996094 A7.5,7.5 0 0 0 31.818359,34.25 A7.5,7.5 0 0 0 31,25.609375 L31.488281,24.822266 C31.926621,24.116266 31.659123,23.188938 30.939453,22.773438 L30.519531,22.53125 L37.994141,9.6269531 L37.128906,9.125  z M10.371094,18.402344 L9.8710938,19.267578 L18.53125,24.267578 L19.03125,23.402344 L10.371094,18.402344  z M7.140625,20 L6.640625,20.867188 L13.566406,24.867188 L14.066406,24 L7.140625,20  z M6.5039062,23.097656 L6.0039062,23.964844 L7.7382812,24.964844 L8.2382812,24.097656 L6.5039062,23.097656  z M14.933594,24.5 L14.433594,25.367188 L16.164062,26.367188 L16.664062,25.5 L14.933594,24.5  z M9.96875,25.097656 L9.46875,25.964844 L15.53125,29.464844 L16.03125,28.597656 L9.96875,25.097656  z M20.535156,27.244141 A0.50005,0.50005 0 0 1 20.568359,27.244141 A0.50005,0.50005 0 0 1 20.808594,27.308594 A0.50005,0.50005 0 0 1 20.994141,28 C20.331001,29.1486 20.150883,30.513922 20.494141,31.794922 C20.837406,33.076022 21.677588,34.166978 22.826172,34.830078 A0.50005,0.50005 0 1 1 22.326172,35.695312 C20.948239,34.899813 19.93916,33.589634 19.527344,32.052734 C19.115536,30.515834 19.333351,28.8779 20.128906,27.5 A0.50005,0.50005 0 0 1 20.535156,27.244141  z " stroke="none" style="" transform="translate(8.0009203,1008.4946)" fill="#000000"></path></g></g></svg>